<svg width="123" height="64" viewBox="0 0 123 64" fill="none" xmlns="http://www.w3.org/2000/svg">
<path fill-rule="evenodd" clip-rule="evenodd" d="M121.081 2.05809H1.91897V61.9419H121.081V2.05809ZM0 0V64H123V0H0Z" fill="#494949"/>
<path fill-rule="evenodd" clip-rule="evenodd" d="M13 38.0509V53H24V43.8829L13 38.0509ZM24 20.0639V11H13V25.8959L24 20.0639Z" fill="#494949"/>
<path d="M48 26H59V53H48V26Z" fill="#494949"/>
<path d="M99 26H110V53H99V26Z" fill="#494949"/>
<path d="M48 11H59V21H48V11Z" fill="#494949"/>
<path d="M99 11H110V21H99V11Z" fill="#494949"/>
<path d="M63 11H74V53H63V11Z" fill="#494949"/>
<path fill-rule="evenodd" clip-rule="evenodd" d="M13 32L43 48L43 16L13 32ZM18.8224 32L40.0888 43.3421L40.0888 20.6579L18.8224 32Z" fill="#494949"/>
<path fill-rule="evenodd" clip-rule="evenodd" d="M95 22L77 13L77 31L95 22ZM88.9508 22L80.0303 17.5397L80.0303 26.4603L88.9508 22Z" fill="#494949"/>
<path fill-rule="evenodd" clip-rule="evenodd" d="M95 42L77 33L77 51L95 42ZM88.9508 42L80.0303 37.5397L80.0303 46.4603L88.9508 42Z" fill="#494949"/>
</svg>
