<svg width="130" height="40" viewBox="0 0 130 40" fill="none" xmlns="http://www.w3.org/2000/svg">
<path d="M44.7962 39.042H35.2238L15.7796 19.8573L7.25415 25.7098L7.25415 39.042H0L0 0.567627L7.25415 0.567627L7.25415 19.6473L33.9898 0.567627L43.7867 0.567627L20.8276 16.3668L44.7962 39.042Z" fill="#80753D"/>
<path d="M57.2106 39.042H50.1434L50.1434 11.1966L57.2106 11.1966L57.2106 39.042Z" fill="#80753D"/>
<path d="M50.144 5.35386L57.2112 5.35386V0L50.144 0V5.35386Z" fill="white"/>
<path d="M50.144 5.35386L57.2112 5.35386V0L50.144 0V5.35386Z" fill="#27AE60"/>
<path d="M75.0425 5.35386L82.1097 5.35386V0L75.0425 0V5.35386Z" fill="#27AE60"/>
<path d="M113.847 10.1751C118.982 10.1751 122.921 11.3998 125.663 13.8493C128.405 16.2988 129.776 19.8593 129.776 24.5308L129.776 38.939L74.959 38.939L74.959 25.2394C74.959 21.1452 76.2054 17.9259 78.6982 15.5814C81.1911 13.2369 84.6063 12.0647 88.9438 12.0647C94.2286 12.0647 98.1423 13.9105 100.685 17.6022C101.582 15.1178 103.24 13.2632 105.658 12.0384C108.051 10.7962 110.781 10.1751 113.847 10.1751ZM97.918 33.8475L97.918 25.2919C97.918 22.475 97.2823 20.4016 96.011 19.0719C94.7147 17.7422 92.5709 17.0774 89.5795 17.0774C86.8872 17.0774 84.868 17.7247 83.5219 19.0194C82.1508 20.3142 81.4653 22.5624 81.4653 25.7643L81.4653 33.8475L97.918 33.8475ZM123.27 33.8475L123.27 24.5833C123.27 18.4946 120.129 15.4502 113.847 15.4502C110.582 15.4502 108.201 16.1588 106.705 17.576C105.185 18.9757 104.424 21.5302 104.424 25.2394L104.424 33.8475L123.27 33.8475Z" fill="#80753D"/>
<path d="M129.776 0.646233L129.776 5.60642L90.103 5.60642L90.103 0.646235L129.776 0.646233Z" fill="#80753D"/>
</svg>
