<svg id="Layer_1" data-name="Layer 1" xmlns="http://www.w3.org/2000/svg" viewBox="0 0 273.9 35.8"><defs><style>.cls-1{fill:#fd409a;}</style></defs><title>BIZBOOKLY</title><path class="cls-1" d="M.6,36H15.5c7.8,0,12-4.1,12-9.6a8.1,8.1,0,0,0-7.7-8.5v-.3c3.6-.8,6.3-3.4,6.3-7.5,0-5.2-3.9-8.9-11.6-8.9H.5V36ZM8,30V20.7h6.2c3.5,0,5.7,2,5.7,4.9,0,2.6-1.8,4.3-5.9,4.3H8ZM8,15.7V7.1h5.6c3.3,0,5.1,1.7,5.1,4.2,0,2.8-2.2,4.4-5.3,4.4ZM40.1,1.1H32.7V36h7.4ZM46.2,36H72.9V29.9H55.5L72.9,5.5V1.1H46.2V7.2H63.7L46.2,31.6ZM79,36H93.9c7.8,0,12-4.1,12-9.6a8.1,8.1,0,0,0-7.7-8.5v-.3c3.6-.8,6.3-3.4,6.3-7.5,0-5.2-3.9-8.9-11.6-8.9H79Zm7.4-6V20.7h6.2c3.5,0,5.7,2,5.7,4.9,0,2.6-1.8,4.3-5.9,4.3h-6Zm0-14.3V7.1H92c3.3,0,5.1,1.7,5.1,4.2,0,2.8-2.2,4.4-5.3,4.4Zm56.8,2.8C143.2,7.1,136.1.6,126.9.6s-16.3,6.5-16.3,17.9,7,17.9,16.3,17.9S143.2,30,143.2,18.5Zm-7.5,0c0,7.4-3.5,11.4-8.9,11.4s-8.9-4-8.9-11.4,3.5-11.4,8.9-11.4S135.7,11.1,135.7,18.5Zm45.5,0C181.2,7.1,174.1.6,164.9.6s-16.3,6.5-16.3,17.9,7,17.9,16.3,17.9S181.2,30,181.2,18.5Zm-7.5,0c0,7.4-3.5,11.4-8.9,11.4s-8.9-4-8.9-11.4,3.5-11.4,8.9-11.4S173.7,11.1,173.7,18.5ZM187,36h7.4V26.1l3.6-4.4,9.6,14.4h8.8L203.3,16.8l13-15.6h-8.8L194.9,16.6h-.5V1.1H187Zm33.5,0h22.3V29.9h-15V1.1h-7.4V36ZM241.7,1.1l12.7,22.6V36h7.3V23.7L274.4,1.1h-8.3l-8,15h-.3l-8-15Z" transform="translate(-0.5 -0.6)"/></svg>